<svg xmlns="http://www.w3.org/2000/svg" width="23" height="20" fill="none"><g fill="#767380"><path d="M6.458 12.813V7.518h1.277v5.295H6.458ZM5.346 8.515v-.997h2.307v.997H5.346ZM10.573 12.895c-.414 0-.777-.067-1.088-.202a1.759 1.759 0 0 1-.72-.555 1.34 1.34 0 0 1-.253-.803c0-.25.051-.475.155-.675.11-.2.26-.367.45-.502.196-.135.423-.228.68-.278l-.025.24a1.315 1.315 0 0 1-.557-.247 1.278 1.278 0 0 1-.475-.998c0-.28.077-.527.23-.742.158-.22.376-.393.654-.518s.595-.187.95-.187c.36 0 .676.062.949.187.278.125.493.298.646.518.158.215.237.462.237.742 0 .19-.04.373-.123.548a1.19 1.19 0 0 1-.343.45c-.153.12-.338.202-.557.247l-.032-.24c.261.05.488.143.679.278a1.369 1.369 0 0 1 .605 1.177c0 .3-.084.568-.253.803-.17.235-.41.42-.72.555-.306.135-.669.202-1.089.202Zm0-1.005c.164 0 .309-.03.434-.09a.756.756 0 0 0 .295-.262.63.63 0 0 0 .114-.368.609.609 0 0 0-.114-.367.702.702 0 0 0-.295-.255.93.93 0 0 0-.434-.098.93.93 0 0 0-.433.098.702.702 0 0 0-.295.255.64.64 0 0 0-.106.367c0 .135.035.258.106.368.071.11.17.197.295.262.125.06.27.09.433.09Zm0-2.295c.191 0 .347-.055.467-.165a.556.556 0 0 0 .188-.427.542.542 0 0 0-.188-.428.646.646 0 0 0-.467-.172.682.682 0 0 0-.466.165.542.542 0 0 0-.188.427c0 .17.063.313.188.428.126.115.28.172.466.172ZM13.27 10.78v-.952h3.804v.952h-3.805Zm1.374-2.31h1.064v3.653h-1.064V8.47Z"/></g><path stroke="#767380" stroke-width="2" d="M21.07 10c0 4.89-4.354 9-9.91 9s-9.91-4.11-9.91-9 4.354-9 9.91-9 9.91 4.11 9.91 9Z"/></svg>