<svg xmlns="http://www.w3.org/2000/svg" width="134" height="25" fill="none"><g fill="#767380"><path d="M15.603 12.026V6.303c0-.562.214-.77.794-.77.73.062 1.375.062 2.083 0 .58-.063.945.146 1.01.707.064.625.43.417.794.209 1.225-.77 2.513-1.25 4.038-1.187 1.224.063 2.298.417 3.028 1.332.365.479.644.27 1.01.063 1.739-1.124 3.521-1.686 5.626-1.187 1.804.417 2.813 1.54 3.093 3.289.365 2.31.15 4.599.15 6.909 0 .978.43 2.227-.215 2.789-.58.561-1.868.062-2.813.208-1.074.145-1.375-.27-1.375-1.332.065-2.019.065-4.12 0-6.14 0-.832 0-1.81-1.009-2.164-1.074-.416-2.083 0-3.093.562-.365.208-.279.562-.279.916 0 2.372-.064 4.682 0 7.055 0 .915-.279 1.186-1.16 1.04a15.201 15.201 0 0 0-2.383 0c-.645.063-.795-.208-.795-.832V11.13c0-.832.065-1.81-.945-2.164-1.074-.354-2.083 0-3.092.562-.366.208-.215.624-.215.915v7.263c0 .708-.215.916-.86.833a18.06 18.06 0 0 0-2.598 0c-.794.062-.945-.27-.945-.916.15-1.81.15-3.704.15-5.598Zm25.814 2.164c-3.179-2.372-2.449-6.014-.73-7.533 1.954-1.686 4.252-1.81 6.636-1.187.494.146.859.209 1.288-.145 1.074-.833 2.384-.833 3.673-.833.365 0 .494.146.43.479-.065.146-.065.27-.151.416-.494 1.81-.494 1.81-2.384 2.019.644 1.186 1.01 2.435.794 3.767-.493 2.58-3.092 4.266-6.27 3.975-.366 0-1.01-.48-1.16.208-.15.687.494.915 1.01 1.04l3.672.625c.58.145 1.224.27 1.804.478 2.448.916 3.028 3.559 1.224 5.453-.73.707-1.504 1.124-2.449 1.394a13.51 13.51 0 0 1-7.28.146 4.973 4.973 0 0 1-1.654-.77c-2.083-1.395-2.083-3.913 0-5.307.215-.146.73-.063.43-.708-.795-1.54-.58-2.31.795-3.35.086.041.171-.021.322-.167Zm4.016 8.033c.494 0 1.01 0 1.503-.145.58-.146 1.224-.27 1.289-.978 0-.708-.645-.916-1.224-.979-1.29-.27-2.663-.416-3.974-.707-.365-.063-.58.062-.73.416-.365.708-.15 1.457.645 1.894.773.375 1.632.5 2.49.5Zm-2.148-12.008c0 1.187.795 1.957 1.869 1.957 1.073 0 1.868-.833 1.868-1.894 0-1.124-.86-2.102-2.019-2.019-1.074 0-1.718.77-1.718 1.956Zm18.019 7.41c-1.225.977-2.6 1.331-4.188 1.185-1.955-.145-3.608-1.456-4.038-3.288-.43-2.102.365-3.767 2.384-4.682 1.439-.625 2.964-.708 4.467-.77.28 0 .795.208.86-.27.15-.417-.151-.833-.58-1.125-.58-.353-1.29-.478-2.02-.416-.794.063-1.653.146-2.448.562-.494.208-.859.208-1.01-.354a.435.435 0 0 0-.15-.27c-1.009-1.957-1.009-1.957 1.16-2.518 1.59-.48 3.243-.562 4.983-.417 2.877.27 4.402 1.81 4.467 4.745.064 2.664.064 5.37.064 8.033 0 .417-.15.479-.494.479h-2.513c-.6.083-.515-.687-.944-.895Zm-.301-3.705c-.215-.354.365-1.04-.43-1.124-.794-.063-1.589 0-2.298.27-.859.354-1.16 1.457-.494 2.102.795.708 1.74.417 2.663.27.774-.27.494-.894.559-1.518ZM12.876 6.72c.064-4.246.064-3.83-3.243-6.203 0-.062-.064-.062-.15-.145-.28-.146-.645-.562-.945-.27-.28.207-.065.623.086.894 1.16 3.142 2.383 6.285 3.522 9.427.15.417.43.77.279 1.25-1.267-.147-2.47-.688-3.673-1.104A395.43 395.43 0 0 1 .763 7.99C.55 7.843.333 7.718.12 7.926c-.279.27 0 .479.15.708 1.139 1.165 1.804 2.705 3.587 3.33-1.718.561-2.362 2.101-3.458 3.204-.214.209-.494.479-.279.77.215.27.58 0 .86-.062a914.41 914.41 0 0 0 11.424-3.746c-.15.479-.322 1.623-.472 2.019-1.074 2.934-2.234 5.93-3.307 8.865-.15.27-.43.708-.15.916.429.27.73-.146 1.009-.354.73-.479 1.374-.978 2.083-1.457.794-.562 1.224-1.332 1.224-2.31.086-2.33-.021-5.41-.021-7.7 0-.062 0-.104-.022-.166.021-.084.043-.167.043-.25 0-1.686 0-3.35.086-4.974ZM71.375 5.492c.13.229.28.5.43.811.15.313.322.666.494 1.02s.322.708.494 1.082c.172.375.3.708.45 1.02.13-.312.28-.645.452-1.02.15-.374.322-.728.494-1.082.172-.354.322-.687.494-1.02.15-.312.3-.582.43-.811h1.009c.064.437.107.915.15 1.415s.086 1.02.129 1.54c.043.52.064 1.04.107 1.582.043.54.065 1.04.086 1.54H75.5c-.022-.708-.043-1.436-.086-2.186a60.849 60.849 0 0 0-.15-2.164c-.065.125-.15.291-.237.479-.086.187-.171.395-.279.603-.107.23-.193.437-.3.687-.108.229-.194.458-.301.687-.108.229-.194.416-.28.603-.085.188-.15.354-.214.479h-.838c-.064-.125-.129-.291-.214-.5-.086-.187-.172-.395-.28-.624-.107-.229-.193-.437-.3-.687-.108-.229-.215-.457-.301-.666-.107-.208-.193-.416-.28-.603-.085-.187-.171-.354-.235-.479a64.735 64.735 0 0 0-.15 2.165c-.044.749-.065 1.477-.087 2.185h-1.095c.022-.5.043-1.02.086-1.561.043-.541.064-1.061.107-1.603.043-.52.086-1.04.13-1.54.042-.499.107-.957.15-1.373h1.03v.02ZM81.898 11.548c-.086-.229-.172-.479-.258-.708-.086-.229-.172-.478-.258-.707h-2.577c-.086.25-.172.478-.258.728-.085.25-.171.479-.257.708h-1.16c.236-.645.451-1.249.644-1.79.215-.541.409-1.061.602-1.56.193-.5.386-.958.58-1.395.193-.437.386-.874.6-1.311h1.053c.215.437.408.874.602 1.31.193.438.386.916.58 1.395.193.5.407 1.02.6 1.561.215.541.43 1.145.666 1.79h-1.16v-.021Zm-1.804-4.89c-.129.311-.28.686-.473 1.123-.193.437-.343.916-.536 1.436h2.018c-.193-.52-.365-.999-.537-1.457-.193-.437-.343-.811-.472-1.103ZM87.719 10.59v.958h-3.866V5.492h1.117v5.12h2.749v-.021ZM91.906 5.492v.957h-1.869v5.099h-1.116v-5.12h-1.869v-.957h4.854v.02ZM96.31 11.548c-.086-.229-.172-.479-.258-.708-.086-.229-.172-.478-.258-.707h-2.577c-.086.25-.172.478-.257.728-.086.25-.172.479-.258.708h-1.16c.236-.645.451-1.249.644-1.79.215-.541.408-1.061.602-1.56.193-.5.386-.958.58-1.395.193-.437.386-.874.6-1.311h1.053c.215.437.408.874.602 1.31.193.438.386.916.58 1.395.193.5.407 1.02.6 1.561.216.541.43 1.145.666 1.79h-1.16v-.021Zm-1.804-4.89c-.13.311-.28.686-.473 1.123-.193.437-.343.916-.537 1.436h2.02c-.194-.52-.366-.999-.538-1.457-.193-.437-.343-.811-.472-1.103ZM103.182 6.303c-.623 0-1.117.187-1.439.582-.322.396-.494.937-.494 1.624 0 .333.043.624.129.895.086.27.193.499.344.686.15.188.343.333.58.458.236.104.493.167.816.167.193 0 .365 0 .494-.021.128-.021.257-.042.343-.063V8.467h1.117v2.914c-.15.062-.408.124-.773.187a7.579 7.579 0 0 1-1.267.104c-.451 0-.838-.063-1.203-.208a2.798 2.798 0 0 1-.923-.604c-.258-.27-.451-.603-.602-.999-.15-.395-.215-.832-.215-1.352 0-.5.086-.958.237-1.353.15-.395.365-.728.644-.999.279-.27.58-.479.945-.624a3.094 3.094 0 0 1 1.16-.208c.279 0 .537.02.751.062.215.042.408.083.559.125.15.042.279.104.386.146.108.062.172.083.215.104l-.344.895a2.85 2.85 0 0 0-.665-.271 4.427 4.427 0 0 0-.795-.083ZM110.419 11.548c-.086-.229-.172-.479-.258-.708-.086-.229-.171-.478-.257-.707h-2.578c-.085.25-.171.478-.257.728s-.172.479-.258.708h-1.16c.237-.645.451-1.249.645-1.79.214-.541.408-1.061.601-1.56.193-.5.387-.958.58-1.395.193-.437.386-.874.601-1.311h1.052c.215.437.409.874.602 1.31.193.438.386.916.58 1.395.193.5.408 1.02.601 1.561.215.541.429 1.145.666 1.79h-1.16v-.021Zm-1.804-4.89c-.129.311-.279.686-.472 1.123-.194.437-.344.916-.537 1.436h2.018c-.193-.52-.365-.999-.536-1.457-.194-.437-.344-.811-.473-1.103ZM113.705 5.492c.129.229.279.5.429.811l.494 1.02c.172.354.323.708.494 1.082.172.375.301.708.451 1.02.129-.312.28-.645.451-1.02.151-.374.323-.728.494-1.082.172-.354.322-.687.494-1.02.151-.312.301-.582.43-.811h1.009c.065.437.108.915.15 1.415.043.5.086 1.02.129 1.54.043.52.065 1.04.108 1.582.043.54.064 1.04.086 1.54h-1.139a82.289 82.289 0 0 0-.085-2.186 59.658 59.658 0 0 0-.151-2.164c-.064.125-.15.291-.236.479-.086.187-.172.395-.279.603-.108.23-.194.437-.301.687-.107.229-.193.458-.301.687l-.279.603c-.086.188-.15.354-.215.479h-.837c-.065-.125-.129-.291-.215-.5-.086-.187-.172-.395-.279-.624-.107-.229-.193-.437-.301-.687-.107-.229-.214-.457-.3-.666-.108-.208-.194-.416-.28-.603a9.733 9.733 0 0 0-.236-.479 65.837 65.837 0 0 0-.15 2.165c-.043.749-.065 1.477-.086 2.185h-1.052c.021-.5.043-1.02.086-1.561.043-.541.064-1.061.107-1.603.043-.52.086-1.04.129-1.54.043-.499.107-.957.15-1.373h1.031v.02ZM120.169 5.492h1.117v6.056h-1.117V5.492ZM126.847 11.548c-.193-.333-.429-.687-.666-1.082-.236-.375-.494-.77-.773-1.166-.257-.395-.537-.77-.816-1.124-.279-.374-.537-.686-.773-.978v4.35h-1.095V5.492h.902c.236.25.494.54.751.874.28.333.537.687.816 1.04.28.354.537.729.795 1.083.258.374.473.707.687 1.02V5.491h1.096v6.056h-.924ZM132.11 6.303c-.623 0-1.117.187-1.439.582-.322.396-.494.937-.494 1.624 0 .333.043.624.129.895.086.27.193.499.344.686.15.188.343.333.58.458.236.104.494.167.816.167.193 0 .365 0 .494-.021.128-.021.257-.042.343-.063V8.467H134v2.914c-.15.062-.408.124-.773.187a7.579 7.579 0 0 1-1.267.104c-.451 0-.838-.063-1.203-.208a2.798 2.798 0 0 1-.923-.604c-.258-.27-.451-.603-.602-.999-.15-.395-.214-.832-.214-1.352 0-.5.085-.958.236-1.353.15-.395.365-.728.644-.999.279-.27.58-.479.945-.624a3.094 3.094 0 0 1 1.16-.208c.279 0 .537.02.751.062.215.042.408.083.559.125.15.042.279.104.386.146.108.062.172.083.215.104l-.344.895a2.85 2.85 0 0 0-.665-.271 4.427 4.427 0 0 0-.795-.083ZM74.19 19.56c-.087-.25-.172-.479-.258-.728-.086-.25-.172-.479-.258-.729h-2.62c-.086.25-.172.5-.258.729-.086.25-.172.478-.258.707h-1.18c.236-.666.45-1.27.665-1.831.215-.562.408-1.082.623-1.582.215-.5.408-.978.601-1.415.194-.437.408-.895.602-1.332h1.073c.215.437.408.895.602 1.332.193.458.386.937.601 1.415.215.479.408 1.02.623 1.582.215.562.43 1.165.665 1.831H74.19v.021Zm-1.826-4.974c-.129.312-.3.708-.473 1.145-.171.458-.365.936-.558 1.477h2.04c-.193-.52-.386-1.02-.558-1.477a37.159 37.159 0 0 0-.451-1.145ZM78.506 19.706c-.43 0-.794-.063-1.095-.188a1.926 1.926 0 0 1-.752-.52 2.533 2.533 0 0 1-.45-.77 3.472 3.472 0 0 1-.15-.978V13.4h1.137v3.746c0 .27.022.52.086.708.065.208.15.353.28.478.128.125.257.208.407.27.15.063.344.084.537.084.194 0 .387-.02.537-.083a.927.927 0 0 0 .408-.27c.108-.126.215-.292.28-.48.064-.208.085-.436.085-.707V13.4h1.139v3.85c0 .354-.043.687-.15.978a2.304 2.304 0 0 1-.452.77c-.193.23-.45.396-.773.52a2.816 2.816 0 0 1-1.074.188ZM86.754 13.4v.978h-1.912v5.203h-1.138v-5.203h-1.911V13.4h4.96ZM91.435 13.4h1.138v6.18h-1.138v-2.746h-2.706v2.726H87.59V13.4h1.138v2.476h2.706V13.4ZM99.832 16.48c0 .52-.086.998-.236 1.394-.15.395-.365.749-.645 1.02-.279.27-.58.478-.945.603a3.569 3.569 0 0 1-1.16.208c-.407 0-.794-.062-1.159-.208a2.884 2.884 0 0 1-.966-.604 2.63 2.63 0 0 1-.645-1.02c-.171-.395-.236-.873-.236-1.394 0-.52.086-.998.236-1.394.15-.395.387-.728.666-1.02.28-.27.601-.478.966-.624a3.093 3.093 0 0 1 1.16-.208c.408 0 .795.062 1.16.208.365.146.687.333.945.624.279.27.494.604.644 1.02.129.395.215.853.215 1.394Zm-4.854 0c0 .332.043.645.13.915.085.27.214.52.364.708.15.187.344.333.58.457.236.105.494.167.773.167.28 0 .537-.062.752-.166.236-.105.43-.25.58-.458.15-.208.279-.437.365-.708a3.05 3.05 0 0 0 .129-.916c0-.332-.043-.645-.13-.915a2.229 2.229 0 0 0-.364-.708 1.8 1.8 0 0 0-.58-.458 1.803 1.803 0 0 0-.752-.166c-.279 0-.537.062-.773.166-.236.104-.43.25-.58.458-.15.188-.279.437-.365.708-.086.27-.129.582-.129.915ZM102.774 13.337c.902 0 1.59.167 2.062.5.473.333.709.832.709 1.498 0 .833-.408 1.415-1.246 1.707.108.145.237.312.387.5.15.186.279.415.429.644.151.23.301.458.43.708.129.25.258.479.365.708h-1.267a9.566 9.566 0 0 0-.365-.646c-.129-.208-.258-.437-.408-.624-.151-.187-.258-.395-.408-.583-.129-.187-.258-.333-.365-.478h-.924v2.33h-1.138v-6.118c.279-.062.558-.104.88-.125.344-.02.623-.02.859-.02Zm.086.958c-.236 0-.451 0-.665.02v2.02h.494c.279 0 .515-.022.73-.042.215-.021.386-.084.515-.167a.906.906 0 0 0 .322-.312c.065-.125.108-.291.108-.5a1.05 1.05 0 0 0-.108-.478.84.84 0 0 0-.3-.312c-.129-.084-.301-.125-.473-.167a3.005 3.005 0 0 0-.623-.062ZM106.812 13.4h1.138v6.18h-1.138V13.4ZM113.748 13.4v.978h-1.911v5.203h-1.139v-5.203h-1.911V13.4h4.961ZM116.927 16.126c.279-.437.536-.895.794-1.352.258-.458.494-.916.709-1.374h1.245a79.994 79.994 0 0 1-1.052 1.873 44.198 44.198 0 0 1-1.16 1.873v2.414h-1.138v-2.393a65.746 65.746 0 0 1-1.16-1.894c-.365-.624-.708-1.249-1.052-1.873h1.332c.214.458.429.916.687 1.374.258.457.537.915.795 1.352Z"/></g></svg>