<svg xmlns="http://www.w3.org/2000/svg" width="134" height="61" fill="#767380"><path d="M13.066 15.057h9.316v13.71h-3.064V24.54c-.812 1.41-1.187 1.922-2 2.563-1.75 1.538-3.876 2.37-6.19 2.37C4.876 29.473 0 23.259 0 15.186 0 7.048 4.814.769 11.066.769c2.563 0 5.564.769 8.002 4.741V1.217h2.814v8.714h-2.939c-.375-1.538-.812-2.499-1.5-3.332-1.5-1.922-3.564-3.011-5.69-3.011-3.313 0-8.064 2.883-8.064 11.404 0 6.6 3.438 11.533 8.127 11.533 3.376 0 6.565-2.819 7.377-6.535.125-.577.125-1.09.188-2.242h-6.252v-2.691h-.063ZM45.2 28.768h-5.814v-3.716c-1.625 2.627-3.813 4.1-6.877 4.1-3.813 0-6.564-2.69-6.564-6.343 0-3.972 3.438-5.958 11.503-6.727.25-.064 1.126-.128 1.876-.192v-2.115c0-2.37-1.813-3.844-4.627-3.844-3 0-4.313 1.025-4.939 3.716h-3.063c.438-2.114 1.063-3.203 2.313-4.293C30.384 8.201 32.26 7.56 34.51 7.56c4.189 0 7.752 1.987 7.752 7.24v11.533h2.876v2.435h.063Zm-5.814-10.764-1.875.256c-6.252.77-8.315 1.922-8.315 4.613 0 2.179 1.875 3.973 4.251 3.973 3.626 0 6.002-3.524 6.002-5.446v-3.396h-.063ZM53.704 11.661c.938-1.474 2.751-4.357 6.502-4.357 2.688 0 4.251 1.474 4.752 4.357.812-1.41 1.188-1.922 1.938-2.563 1.313-1.217 2.75-1.794 4.376-1.794 3.126 0 4.94 2.05 4.94 5.703v13.198h2.813v2.563h-5.752V14.16c0-2.947-.938-4.229-2.939-4.229-3.563 0-5.376 4.357-5.376 5.767v10.635h2.938v2.435h-5.877v-15.12c0-2.628-.938-3.781-2.938-3.781-3.189 0-5.377 4.036-5.377 5.959v10.443h2.876v2.499h-8.815v-2.435h3V10.187h-3V7.69h5.94v3.972ZM82.025 0h5.689v12.11c.75-1.474 3.126-4.614 6.69-4.614 4.626 0 8.127 4.806 8.127 10.957 0 5.766-3.751 10.507-8.19 10.507-3.626 0-5.377-2.434-6.627-4.229v4.037H81.9v-2.435h2.875V2.5h-2.75V0Zm5.751 19.862c0 3.46 2.751 6.535 5.877 6.535 3.501 0 5.752-3.267 5.752-8.265 0-4.87-2.25-8.137-5.627-8.137-3 0-6.002 3.396-6.002 6.343v3.524ZM104.908 0h5.815v26.27h2.75v2.498h-8.627v-2.499h2.938V2.5h-2.876V0ZM133.229 22.938c-.437 1.473-.875 2.306-1.625 3.203-1.626 1.922-3.876 3.012-6.44 3.012-5.564 0-9.44-4.421-9.44-10.829 0-6.15 3.876-10.892 8.94-10.892 5.127 0 9.003 4.037 9.003 11.405h-14.755c.25 3.075.938 4.805 2.376 6.215 1.063 1.025 2.313 1.538 3.876 1.538 2.376 0 3.814-1.09 4.814-3.652h3.251Zm-2.938-6.408c-.25-2.627-.813-4.036-2.001-5.254a4.936 4.936 0 0 0-3.376-1.28c-2.501 0-4.501 1.729-5.439 4.484-.125.513-.313 1.281-.438 2.05h11.254ZM9.996 32.855h6.44l7.376 23.002h2.001v4.485h-6.19l-1.75-5.959h-9.44l-1.75 5.959H.43v-4.485h2.063l7.503-23.002Zm3.188 5.19L9.621 50.22h7.064l-3.5-12.174ZM25.689 39.519h8.127v4.036h-2.063l2.813 12.302 3.376-16.338h5.252l3.376 16.146 2.688-12.11H47.32V39.52h8.128v4.036h-1.75L49.32 60.406h-5.377l-3.376-14.544-3.188 14.544h-5.502l-4.501-16.85h-1.688v-4.037ZM74.764 56.306h1.75v4.1H70.2v-2.435c-2.063 2.115-3.626 2.884-6.19 2.884-4.063 0-7.19-2.82-7.19-6.536 0-6.15 6.753-6.791 13.255-7.432-.063-3.204-.813-4.037-3.751-4.037-2.063 0-3.564 1.218-3.626 3.14l-4.94-.128c.25-4.165 3.564-6.856 8.378-6.856 5.627 0 8.69 2.627 8.69 7.368v9.931h-.062Zm-4.814-5.831c-4.814.448-7.94.897-7.94 3.78 0 1.73 1.313 2.82 3.376 2.82 2.563 0 4.564-1.987 4.564-4.614v-1.986ZM87.02 42.722c1.312-2.627 2.813-3.716 5.126-3.716.687 0 1.313.064 2.313.257v4.869a11.425 11.425 0 0 0-2.5-.256c-2.69 0-4.94 1.922-4.94 4.357v8.137h2.438v4.036H80.08V56.37h2V43.555h-1.938V39.52h6.94v3.203h-.063ZM114.84 53.486c-.938 4.55-4.626 7.305-9.565 7.305-5.69 0-9.878-4.55-9.878-10.957 0-6.343 4.251-11.02 9.94-11.02 3.251 0 6.065 1.538 7.815 4.229 1.876 2.947 1.938 5.702 2.001 7.816h-14.692c.5 5.447 3.939 5.703 4.939 5.703 2 0 3.376-.961 4.126-3.14h5.314v.064Zm-5.189-6.15c-.312-2.627-1.875-4.101-4.314-4.101-2.188 0-3.938 1.538-4.564 4.1h8.878ZM124.621 35.93h3.251c.75 0 1.313.193 1.688.513s.563.77.563 1.41c0 .32-.063.64-.125.833-.125.192-.188.384-.313.513-.125.128-.25.256-.375.32s-.188.128-.25.128c.125 0 .187.064.313.128.125.064.25.128.312.256.125.129.188.257.25.449.063.192.125.384.125.705 0 .384 0 .768.063 1.153.062.32.125.577.312.705h-1.313a4.489 4.489 0 0 1-.187-.513v-.512c0-.32 0-.577-.063-.833a3.038 3.038 0 0 0-.187-.577c-.125-.128-.25-.256-.438-.32a1.885 1.885 0 0 0-.688-.128h-1.75v2.883h-1.188V35.93Zm1.188 3.14h1.938c.375 0 .688-.064.875-.256.188-.192.313-.449.313-.833 0-.192-.063-.384-.125-.577-.063-.128-.125-.256-.25-.32s-.25-.128-.375-.128-.313-.064-.438-.064h-1.938v2.178Z"/><path d="M127.372 46.502c-3.689 0-6.627-3.075-6.627-6.791 0-3.78 3.001-6.856 6.627-6.856 3.689 0 6.627 3.076 6.627 6.792.063 3.78-2.938 6.855-6.627 6.855Zm0-12.557c-3.063 0-5.564 2.562-5.564 5.702s2.501 5.702 5.564 5.702 5.564-2.563 5.564-5.702c0-3.14-2.501-5.702-5.564-5.702Z"/></svg>