<svg xmlns="http://www.w3.org/2000/svg" width="135" height="38" fill="#767380"><path d="M127.119 4.168a3.383 3.383 0 0 1 .974-2.465 3.457 3.457 0 0 1 4.921 0 3.382 3.382 0 0 1 .974 2.465 3.382 3.382 0 0 1-.974 2.465 3.464 3.464 0 0 1-4.921 0 3.399 3.399 0 0 1-.974-2.465Zm3.435 4.207a4.245 4.245 0 0 0 2.327-.734 4.19 4.19 0 0 0 1.53-1.888 4.155 4.155 0 0 0-.946-4.54 4.257 4.257 0 0 0-4.588-.893 4.22 4.22 0 0 0-1.89 1.533 4.17 4.17 0 0 0-.717 2.315 4.161 4.161 0 0 0 1.253 2.992 4.233 4.233 0 0 0 3.031 1.212v.003Zm-.889-3.847h.849l1.293 2.084h.808l-1.374-2.123a1.263 1.263 0 0 0 .915-.392 1.23 1.23 0 0 0 .336-.93c0-.961-.569-1.362-1.738-1.362h-1.86V6.61h.728V4.526l.043.002Zm0-.64V2.401h1.01c.525 0 1.051.12 1.051.721 0 .762-.569.801-1.172.801h-.889v-.037ZM27.425 17.508h24.693V36.3h-4.93l-1.819-4.567c-3.839 3.325-10.87 5.489-18.547 5.489-9.618 0-14.346-2.204-17.215-3.967C.959 28.166.717 22.157.717 18.43.717 9.856 9 .2 27.347.2c10.505 0 22.184 3.726 23.8 11.619h-7.356c-2.424-6.13-10.628-7.413-16.851-7.413-10.103 0-18.427 5.049-18.427 14.264 0 7.132 3.759 14.504 18.71 14.504 3.96.13 7.9-.636 11.516-2.243 4.938-2.447 6.188-5.57 6.188-9.335H27.425v-4.088ZM71.433 32.093H99.96v4.206H63.837V1.122h7.596v30.972ZM116.975 36.3h-7.597V1.12h7.596l.001 35.18Z"/></svg>